<svg width="91" height="21" viewBox="0 0 91 21" fill="none" xmlns="http://www.w3.org/2000/svg">
<path fill-rule="evenodd" clip-rule="evenodd" d="M11.311 0C10.6049 1.13221 9.94978 2.15127 9.32773 3.18455C6.98649 7.07611 4.65324 10.9712 2.32882 14.87C2.16914 15.1338 1.97191 15.4746 2.03896 15.7275C2.123 16.0352 2.40831 16.3652 2.71502 16.5448C3.12275 16.7867 3.57748 16.6297 3.95999 16.3622C4.11616 16.2533 4.27305 16.1454 4.4309 16.039L6.31123 12.5497C6.30957 12.5504 6.30791 12.551 6.30625 12.5517C6.31827 12.5317 6.33016 12.5118 6.34196 12.4921L6.36854 12.4443L6.37186 12.4413C6.67062 11.9434 6.90255 11.5578 7.13346 11.1689C8.86096 8.28878 10.5842 5.40866 12.3201 2.53221C12.5009 2.23173 12.7068 1.93449 12.9464 1.66698C13.9804 0.523761 15.5863 0.51709 16.5783 1.69335C17.1331 2.34923 17.5871 3.07822 18.0284 3.80369C20.3654 7.64024 22.6898 11.4805 25.0016 15.328C25.6111 16.3394 26.0152 17.403 25.7756 18.5829C25.5275 19.7992 24.3337 20.8322 23.2242 20.869C23.5772 20.2206 24.0557 19.5463 24.3205 18.8173C24.7199 17.707 24.3085 16.6512 23.7201 15.6581C22.2321 13.1516 20.7351 10.649 19.2219 8.15719C18.1206 6.34335 16.9778 4.54746 15.8723 2.73729C15.6159 2.31955 15.2794 2.06274 14.7245 2.0664C14.1823 2.0664 13.8794 2.35667 13.644 2.7451C13.584 2.84467 13.523 2.94342 13.463 3.04295L15.0485 5.59177L15.0451 5.59861C17.2641 9.26338 19.4914 12.928 21.6853 16.6073C21.9459 17.0471 22.1564 17.5824 22.1354 18.0624C22.0679 19.5317 20.3108 20.3631 18.7136 19.7108C18.2428 19.5166 17.8184 19.2198 17.398 18.9413C14.3043 16.8966 11.0594 16.9412 8.03293 19.0702C7.57479 19.3927 7.12919 19.7297 6.65424 20.0302C5.36811 20.8326 3.94304 21.1879 2.37533 20.9022C1.15214 20.6787 0.3699 20.0006 0 18.9452C0.93726 19.5461 1.97117 19.828 3.12696 19.8134C4.29538 19.7987 5.27919 19.4142 6.22486 18.8427C7.39758 18.1355 8.5497 17.3513 9.84433 16.8603C12.463 15.8672 15.023 16.2443 17.4146 17.5634C17.9106 17.8382 18.3774 18.154 18.8481 18.4618C19.4281 18.8355 20.0038 18.8643 20.4577 18.5273C20.8822 18.2121 20.9666 17.7141 20.6388 17.1718C20.3943 16.767 20.1501 16.362 19.9062 15.957L16.7502 15.0282L16.7452 15.0224C12.6425 13.6803 9.1027 14.408 5.84281 16.5741C5.38888 16.8746 4.94317 17.186 4.47243 17.4609C3.59814 17.9665 2.41285 17.9594 1.64363 17.4648C0.912244 16.9957 0.571451 16.0832 0.844654 15.2001C0.966552 14.808 1.1435 14.4196 1.36208 14.0605C3.6403 10.2935 5.90183 6.51894 8.2389 2.78124C8.73491 1.98613 9.49133 1.308 10.1848 0.619138C10.4412 0.366378 10.8614 0.238082 11.311 0ZM12.7387 4.24021C11.3832 6.4787 10.0228 8.71306 8.69237 10.9638C8.61541 11.0941 8.5359 11.218 8.45235 11.3359L8.46979 11.3271L6.6559 14.7031C7.34127 14.3487 8.05597 14.0358 8.81446 13.7861C10.8573 13.1155 12.9381 13.0231 15.0651 13.3896C15.2189 13.4158 15.3624 13.4504 15.4945 13.4951L19.001 14.454C17.5518 12.0456 16.0999 9.63888 14.5942 7.25582C14.5274 7.14958 14.4707 7.04651 14.4231 6.94723C14.1784 6.55972 13.2377 5.04571 12.7387 4.24021Z" fill="white"/>
<path d="M84.7992 11.1445C84.7992 11.9102 84.9659 12.4757 85.2984 12.8408C85.635 13.2022 86.1647 13.3827 86.8872 13.3827C87.396 13.3827 87.8453 13.3061 88.2351 13.1523C88.6292 12.9948 88.9438 12.7941 89.1778 12.5507V8.47164H91V14.081C91 14.6858 90.9014 15.2105 90.7043 15.6542C90.5073 16.1014 90.2198 16.4712 89.8422 16.7646C89.4688 17.0579 89.0093 17.2767 88.4635 17.4198C87.9177 17.5665 87.2976 17.6395 86.604 17.6396C85.9267 17.6396 85.294 17.5773 84.707 17.4521C84.1202 17.3268 83.5825 17.157 83.0941 16.9423L83.771 15.6005C83.9599 15.7079 84.1656 15.8024 84.3873 15.8847C84.6089 15.967 84.8386 16.0351 85.0766 16.0888C85.3188 16.1425 85.5654 16.1819 85.8158 16.207C86.0661 16.2356 86.3146 16.2499 86.5608 16.2499C87.3981 16.2499 88.0428 16.0922 88.4943 15.7773C88.9497 15.466 89.1778 14.9971 89.1778 14.371V14.1562C89.0177 14.2528 88.8366 14.3424 88.6355 14.4247C88.4385 14.5034 88.2249 14.5716 87.9951 14.6288C87.7695 14.6861 87.5294 14.7304 87.275 14.7626C87.0247 14.7913 86.7696 14.8056 86.511 14.8056C85.9569 14.8056 85.4601 14.7361 85.021 14.5966C84.586 14.4535 84.2168 14.2455 83.913 13.9736C83.6134 13.698 83.383 13.3597 83.2229 12.9589C83.0629 12.5582 82.9828 12.1001 82.9828 11.5849V8.47164H84.7992V11.1445Z" fill="white"/>
<path fill-rule="evenodd" clip-rule="evenodd" d="M47.5597 8.35933C48.1754 8.35933 48.7401 8.43726 49.2532 8.59468C49.7703 8.7521 50.2135 8.97451 50.5829 9.2607C50.9522 9.54688 51.2397 9.89035 51.445 10.291C51.6543 10.6882 51.7589 11.1291 51.7589 11.6122C51.7588 12.1165 51.6507 12.5727 51.4333 12.9804C51.2158 13.3848 50.9139 13.7325 50.5281 14.0224C50.1463 14.3087 49.6905 14.53 49.161 14.6874C48.6356 14.8413 48.065 14.9189 47.4493 14.9189C47.1866 14.9189 46.9255 14.9045 46.6669 14.8759C46.4126 14.8473 46.1665 14.8078 45.9286 14.7577C45.6946 14.7076 45.4726 14.648 45.2633 14.58C45.0581 14.5084 44.8752 14.4318 44.7151 14.3495V17.3935H42.893V8.47164H44.7151V9.06734C44.8752 8.97075 45.0641 8.87976 45.2816 8.7939C45.499 8.70806 45.7331 8.63271 45.9834 8.56832C46.2338 8.5039 46.4931 8.45371 46.7599 8.41793C47.0265 8.37861 47.2931 8.35935 47.5597 8.35933ZM47.3263 9.74898C47.0801 9.74898 46.8334 9.77049 46.5872 9.81343C46.3409 9.85279 46.1028 9.91016 45.8729 9.9853C45.6472 10.0604 45.4337 10.1514 45.2326 10.2587C45.0355 10.3661 44.8629 10.4867 44.7151 10.6191V12.8144C44.8997 12.9431 45.0947 13.0521 45.2998 13.1415C45.5051 13.231 45.7151 13.304 45.9286 13.3613C46.1419 13.4185 46.3573 13.4615 46.5747 13.4902C46.7923 13.5152 47.004 13.5283 47.2092 13.5283C47.6278 13.5282 47.9996 13.4794 48.3238 13.3827C48.652 13.2826 48.927 13.1472 49.1485 12.9755C49.3742 12.8038 49.5469 12.6016 49.666 12.3691C49.7849 12.1366 49.8445 11.8841 49.8445 11.6122C49.8445 11.3582 49.785 11.118 49.666 10.8925C49.551 10.6671 49.3827 10.4699 49.161 10.3017C48.9435 10.13 48.6788 9.99597 48.367 9.89937C48.0592 9.79919 47.7121 9.749 47.3263 9.74898Z" fill="white"/>
<path fill-rule="evenodd" clip-rule="evenodd" d="M57.566 8.35933C58.2595 8.35936 58.8832 8.45035 59.4372 8.63277C59.9955 8.8117 60.4682 9.05809 60.8541 9.373C61.2439 9.6878 61.5409 10.0587 61.7461 10.4843C61.9554 10.9102 62.0609 11.3668 62.0609 11.8535C62.0609 11.9142 62.0583 11.9803 62.0542 12.0517C62.0542 12.1197 62.05 12.1829 62.0418 12.2402H55.1707C55.2487 12.4297 55.3739 12.6033 55.5461 12.7607C55.7226 12.9181 55.9421 13.0544 56.2048 13.1689C56.4674 13.2834 56.7712 13.372 57.1159 13.4365C57.4606 13.4973 57.8426 13.5282 58.2612 13.5283C58.6798 13.5283 59.0966 13.4901 59.5111 13.415C59.9257 13.3363 60.322 13.2381 60.6996 13.1201L61.3159 14.3329C61.0779 14.4295 60.8354 14.5156 60.5891 14.5907C60.347 14.6623 60.0919 14.7233 59.8251 14.7734C59.5625 14.8198 59.2857 14.8557 58.9945 14.8808C58.7072 14.9058 58.4028 14.9189 58.0826 14.9189C57.2659 14.9189 56.5496 14.8328 55.934 14.6611C55.3183 14.4893 54.803 14.2549 54.3884 13.9579C53.9738 13.6609 53.6617 13.3118 53.4524 12.9111C53.243 12.5103 53.1384 12.0788 53.1384 11.6171C53.1384 11.1877 53.2388 10.7777 53.4399 10.3876C53.641 9.99402 53.931 9.64722 54.3086 9.34663C54.6863 9.04608 55.1481 8.80582 55.694 8.62691C56.244 8.44803 56.8683 8.35933 57.566 8.35933ZM57.7014 9.74898C57.3566 9.74898 57.042 9.78352 56.7587 9.85151C56.4756 9.9195 56.2271 10.0105 56.0137 10.125C55.8004 10.2394 55.6217 10.3722 55.478 10.5224C55.3386 10.6726 55.2364 10.8319 55.1707 10.9999H60.1274C60.0617 10.8246 59.9588 10.6619 59.8192 10.5117C59.6838 10.3578 59.5136 10.2251 59.3085 10.1142C59.1033 9.99973 58.865 9.91007 58.5942 9.84566C58.3234 9.78126 58.0256 9.74899 57.7014 9.74898Z" fill="white"/>
<path fill-rule="evenodd" clip-rule="evenodd" d="M41.6737 14.8056H39.6231L38.8532 13.3935H33.2322L32.4872 14.8056H30.43L34.9497 6.41598H37.0186L41.6737 14.8056ZM33.9772 11.9931H38.0842L36.0028 8.1816L33.9772 11.9931Z" fill="white"/>
<path d="M67.054 10.3984L68.784 8.46578H71.0564L68.2301 11.6337L71.2349 14.8056H68.9078L67.0291 12.8251L65.2867 14.8056H63.0151L65.9087 11.6386L62.9038 8.46578H65.2318L67.054 10.3984Z" fill="white"/>
<path d="M74.2705 14.8056H72.4483V8.47164H74.2705V14.8056Z" fill="white"/>
<path d="M79.5287 8.47164H81.2836V9.66304H79.5287V14.8056H77.7065V9.66304H75.9515V8.47164H77.7065V6.50192H79.5287V8.47164Z" fill="white"/>
<path d="M6.30542 12.5546H6.30126C6.30301 12.5539 6.30451 12.5524 6.30625 12.5517L6.30542 12.5546Z" fill="white"/>
<path d="M73.3594 5.92185C73.5441 5.92186 73.7083 5.94468 73.852 5.99118C73.9997 6.03412 74.1247 6.09377 74.2274 6.16892C74.33 6.24407 74.4082 6.33369 74.4616 6.43747C74.5189 6.53759 74.5479 6.64664 74.5479 6.76462C74.5479 6.87901 74.5189 6.98808 74.4616 7.09176C74.4082 7.19196 74.33 7.28159 74.2274 7.36032C74.1248 7.43544 73.9997 7.49642 73.852 7.54293C73.7083 7.58586 73.5441 7.60737 73.3594 7.60738C73.1789 7.60738 73.0146 7.58582 72.8669 7.54293C72.7233 7.49642 72.6 7.43545 72.4974 7.36032C72.3947 7.28159 72.3148 7.19196 72.2573 7.09176C72.204 6.98801 72.1768 6.8791 72.1768 6.76462C72.1768 6.64655 72.204 6.53765 72.2573 6.43747C72.3148 6.33369 72.3947 6.24407 72.4974 6.16892C72.6 6.09379 72.7233 6.03412 72.8669 5.99118C73.0146 5.94474 73.179 5.92185 73.3594 5.92185Z" fill="white"/>
</svg>
